<?xml version="1.0" encoding="UTF-8" standalone="no"?>
<!-- Created with Inkscape (http://www.inkscape.org/) -->

<svg
   xmlns:dc="http://purl.org/dc/elements/1.1/"
   xmlns:cc="http://creativecommons.org/ns#"
   xmlns:rdf="http://www.w3.org/1999/02/22-rdf-syntax-ns#"
   xmlns:svg="http://www.w3.org/2000/svg"
   xmlns="http://www.w3.org/2000/svg"
   version="1.1"
   width="511.87418"
   height="169.54866"
   id="svg3513">
  <defs
     id="defs3515" />
  <g
     transform="translate(-155.49145,-450.445)"
     id="layer1">
    <path
       d="m 532.96709,529.55734 c -6.54899,0 -12.0678,7.65275 -14.33358,16.20997 l 0,-15.51706 -13.58854,0.65306 0,2.95257 3.2469,0 c 1.43183,0 2.52639,0.41391 3.29289,1.25706 0.76957,0.84008 1.15282,2.16153 1.15282,3.97661 l 0,23.85353 c 0,0.69292 -0.32193,1.28466 -0.95966,1.77828 -0.64079,0.49363 -1.59126,0.73891 -2.84525,0.73891 l -3.7252,0 0,2.94337 23.41816,0 0,-2.94337 -4.76764,0 c -1.54527,0 -2.6429,-0.23915 -3.28063,-0.72358 -0.63773,-0.48136 -0.96273,-1.17428 -0.96273,-2.07568 l 0,-6.95677 c 0,-7.19899 3.04761,-19.49674 9.13977,-19.49674 1.66484,0 1.33064,2.65823 4.65419,2.65823 2.6613,0 4.54383,-1.99597 4.54383,-4.54382 0,-2.87898 -2.3271,-4.76457 -4.98533,-4.76457 m 88.41625,24.60807 c -0.21462,3.94595 -0.96272,6.77587 -2.24125,8.48977 -1.28159,1.71696 -2.82686,2.57238 -4.64193,2.57238 -1.52074,0 -2.7778,-0.56415 -3.75893,-1.68937 -0.98725,-1.12829 -1.48088,-2.75327 -1.48088,-4.87495 l 0,-24.50046 11.7612,0 0,-3.25303 -11.7612,0 0,-15.57531 -2.75327,0 c -0.24528,5.23367 -1.52381,9.32985 -3.84784,12.26709 -1.60965,2.01436 -3.95821,3.27756 -7.03648,3.79571 l 0,2.76554 6.66856,0 0,25.63182 c 0,2.79926 0.88301,5.06197 2.65823,6.78507 1.77522,1.72616 4.23415,2.58771 7.37681,2.58771 3.4094,0 6.1872,-1.22947 8.33034,-3.68841 2.14007,-2.45894 3.28982,-6.23012 3.45232,-11.31356 l -2.72568,0 m -15.64583,-56.71835 c -1.29079,0.25141 -2.47427,0.36485 -3.49831,0.36485 -3.99501,0 -4.85349,-1.79974 -4.85349,-6.34357 l 0,-18.08943 8.3518,0 0,-7.82751 -8.3518,0 0,-11.67536 -11.66922,2.13701 0,9.53835 -5.19381,0 0,7.82751 5.19381,0 0,19.34343 c 0,9.86641 3.75892,14.17415 13.22982,14.17415 2.16153,0 4.43957,-0.25142 6.7912,-0.68986 l 0,-8.75957 m -301.17439,16.52301 24.58937,0 0,2.94643 -4.11765,0 c -1.45328,0 -2.47426,0.23915 -3.05374,0.71744 -0.57947,0.48443 -0.87075,1.21414 -0.87075,2.2014 l 0,29.71573 c 0,3.49218 0.30661,6.12895 0.91674,7.91643 0.90447,2.63983 2.56012,4.74617 4.96693,6.31597 2.40375,1.57593 5.54947,2.35776 9.4341,2.35776 5.36858,0 9.46476,-1.3889 12.28549,-4.1759 2.81459,-2.78393 4.22495,-6.50913 4.22495,-11.17253 l 0,-23.47948 c 0,-2.40374 -0.16863,-4.21882 -0.50282,-5.46055 -0.34033,-1.2356 -0.82476,-2.20446 -1.45329,-2.89738 -0.62853,-0.68985 -1.43182,-1.20494 -2.39455,-1.53913 -0.96886,-0.33113 -2.58158,-0.49976 -4.83509,-0.49976 l 0,-2.94643 22.47382,0 0,2.94643 -1.59432,0 c -2.50493,0 -4.36599,0.67452 -5.59239,2.01743 -1.22641,1.35211 -1.83654,3.30515 -1.83654,5.86834 l 0,25.42945 c 0,6.3497 -1.81201,11.22159 -5.44216,14.60646 -4.08392,3.82024 -9.51075,5.7273 -16.28969,5.7273 -5.86834,0 -10.48574,-0.83396 -13.84915,-2.49573 -3.36034,-1.67098 -5.80395,-4.06859 -7.32162,-7.19285 -1.14976,-2.37003 -1.72003,-5.35938 -1.72003,-8.965 l 0,-32.0735 c 0,-0.90447 -0.3158,-1.62192 -0.93514,-2.14314 -0.62546,-0.51815 -1.56059,-0.77876 -2.80539,-0.77876 l -4.27708,0 0,-2.94643 m 6.83842,-62.52507 14.75362,0 20.57903,33.54211 -0.0123,-33.54211 11.50979,0 0,54.34496 -12.28856,0 -23.0257,-37.7364 -0.0245,37.7364 -11.49139,0 0,-54.34496 z m 312.46772,79.45954 18.00972,0 0,2.78393 -1.68324,0 c -1.58206,0 -2.66436,0.20542 -3.23463,0.60707 -0.57641,0.40471 -0.86462,0.98725 -0.86462,1.74149 0,0.33726 0.0797,0.67759 0.24528,1.01485 l 10.49801,22.43703 7.84591,-18.60452 c 0.55801,-1.31839 0.84008,-2.60918 0.84008,-3.87237 0,-0.97499 -0.38938,-1.73536 -1.15588,-2.27191 -0.77264,-0.54268 -2.3179,-0.89221 -4.62661,-1.05164 l 0,-2.78393 15.55385,0 0,2.78393 c -2.95256,0.29127 -4.93933,1.60965 -5.95111,3.96128 l -14.09137,32.27585 c -2.39455,5.48815 -4.7799,9.24707 -7.15912,11.27984 -2.40375,2.05729 -4.98533,3.0844 -7.7386,3.0844 -2.00517,0 -3.61789,-0.55188 -4.83203,-1.64338 -1.21107,-1.09763 -1.82427,-2.44667 -1.82427,-4.0502 0,-1.20187 0.38018,-2.19526 1.12216,-2.96482 0.7481,-0.77877 1.68323,-1.16815 2.80539,-1.16815 1.01485,0 1.87027,0.33419 2.56625,0.99338 0.68985,0.6592 1.03938,1.45329 1.03938,2.37923 0,0.29433 -0.0521,0.68678 -0.15944,1.19267 -0.10731,0.39245 -0.15943,0.68372 -0.15943,0.87075 0,0.63773 0.41391,0.95353 1.2448,0.95353 0.88301,0 1.88559,-0.3158 3.00162,-0.94433 1.11603,-0.6316 2.15847,-1.64032 3.12119,-3.03228 0.96886,-1.39197 2.6521,-4.53769 5.05585,-9.4525 l -14.20787,-30.37186 c -0.51509,-1.04244 -1.14362,-1.81814 -1.90706,-2.32403 -0.7665,-0.50896 -1.88559,-0.85542 -3.35421,-1.03938 l 0,-2.78393 m -80.98763,23.58157 c 1.65564,4.63274 3.56883,7.83365 5.72423,9.61193 2.14927,1.78135 4.8075,2.67049 7.96855,2.67049 2.91271,0 5.15396,-0.6408 6.71762,-1.91932 1.56673,-1.27852 2.34856,-2.90044 2.34856,-4.87188 0,-1.12829 -0.28513,-2.11248 -0.86154,-2.96483 -0.57335,-0.85235 -1.37051,-1.48088 -2.38536,-1.89786 -1.02098,-0.41698 -3.65774,-1.03018 -7.91029,-1.84573 -4.06553,-0.80636 -6.90158,-1.65258 -8.49897,-2.53253 -1.59433,-0.87994 -2.84219,-2.09715 -3.73133,-3.64548 -0.89221,-1.5514 -1.33371,-3.2377 -1.33371,-5.05585 0,-2.75327 0.9106,-5.249 2.7502,-7.49638 2.36696,-2.85752 5.67825,-4.28934 9.93693,-4.28934 3.2469,0 6.25159,1.04857 9.02019,3.14572 l 2.63677,-2.81766 1.63418,0 1.03937,13.42911 -2.62143,0 c -1.17428,-3.89077 -2.76554,-6.69003 -4.76764,-8.40393 -2.0021,-1.71083 -4.47331,-2.56624 -7.40747,-2.56624 -2.53559,0 -4.52543,0.62853 -5.96645,1.89479 -1.44716,1.26319 -2.1646,2.80233 -2.1646,4.62354 0,1.60658 0.66532,2.93723 1.99903,3.995 1.30612,1.08843 3.87237,1.93465 7.70181,2.55398 4.43958,0.74504 7.33389,1.37358 8.67373,1.87947 2.1738,0.80022 3.85704,2.02969 5.05278,3.69147 1.19268,1.66178 1.79055,3.68841 1.79055,6.07989 0,3.29289 -1.29999,6.08602 -3.89996,8.36713 -2.59997,2.28724 -5.90206,3.43086 -9.9032,3.43086 -3.7068,0 -7.14686,-1.2172 -10.31711,-3.64548 l -2.92497,3.31742 -2.12168,0 -0.80023,-14.73829 2.62144,0 m -66.94287,-7.36914 16.55337,0 c 0.97805,0 1.73842,-0.325 2.28111,-0.98113 0.54268,-0.65306 0.81555,-1.76908 0.81555,-3.34807 0,-2.93417 -0.929,-5.4299 -2.79313,-7.48413 -1.86106,-2.06035 -4.05326,-3.08746 -6.58271,-3.08746 -2.82993,0 -5.22754,1.24173 -7.19592,3.72519 -1.96838,2.48653 -2.99549,6.21173 -3.07827,11.1756 m 27.02071,2.78393 -27.02071,0 c 0.1349,5.71197 1.20801,9.74071 3.23157,12.08927 2.3179,2.63676 5.2674,3.95821 8.84849,3.95821 5.27967,0 9.52302,-2.94337 12.73006,-8.84236 l 2.54172,1.10989 c -3.90609,7.56384 -9.53528,11.33809 -16.89982,11.33809 -5.02519,0 -9.24708,-1.8212 -12.67487,-5.45136 -3.43086,-3.63628 -5.14783,-8.27821 -5.14783,-13.9442 0,-6.08908 1.68937,-11.01616 5.06504,-14.76895 3.37568,-3.75279 7.53011,-5.62919 12.47252,-5.62919 3.62708,0 6.76667,0.9382 9.40957,2.80233 2.63676,1.87027 4.62354,4.55609 5.96032,8.04827 0.93819,2.45587 1.43182,5.5556 1.48394,9.29 m -75.14076,-18.99636 18.50641,0 0,2.78393 c -2.462,0.0552 -4.03793,0.27287 -4.71551,0.65612 -0.68372,0.38632 -1.02405,0.93207 -1.02405,1.64952 0,0.58867 0.11957,1.16508 0.35566,1.74762 l 9.8848,22.14883 9.11217,-21.46205 c 0.13184,-0.37405 0.19929,-0.74197 0.19929,-1.11602 0,-1.93772 -1.93465,-3.14572 -5.79168,-3.62402 l 0,-2.78393 15.55998,0 0,2.78393 c -1.579,0.15943 -2.83606,0.58254 -3.76812,1.26933 -0.9382,0.68678 -1.66178,1.60352 -2.16767,2.76553 l -13.7817,31.83128 -2.22285,0 -14.60339,-32.71735 c -0.53962,-1.15282 -1.18961,-1.95918 -1.94998,-2.41602 -0.76344,-0.46603 -1.96224,-0.70518 -3.59336,-0.73277 l 0,-2.78393 m 156.69346,-15.55691 c 1.19881,0 2.25352,0.45683 3.16105,1.36437 0.90448,0.90447 1.36131,1.97451 1.36131,3.20091 0,1.20187 -0.44457,2.24125 -1.32145,3.12119 -0.88607,0.87995 -1.93771,1.32145 -3.16412,1.32145 -1.22333,0 -2.28724,-0.44457 -3.17944,-1.33984 -0.89834,-0.89528 -1.34292,-1.93772 -1.34292,-3.14573 0,-1.19574 0.45071,-2.25351 1.36131,-3.15798 0.90754,-0.90754 1.94692,-1.36437 3.12426,-1.36437 m -10.54093,15.72247 15.06329,-0.49362 0,32.20533 c 0,0.88301 0.21155,1.50541 0.63773,1.8764 0.61933,0.53042 1.3889,0.80022 2.3271,0.80022 l 4.24028,0 0,2.94644 -21.45284,0 0,-2.94644 3.96741,0 c 1.17122,0 2.03276,-0.28207 2.58158,-0.85848 0.54575,-0.57027 0.82169,-1.40423 0.82169,-2.49573 l 0,-23.57452 c 0,-1.49008 -0.42924,-2.61531 -1.28466,-3.37261 -0.85848,-0.76037 -2.12781,-1.13749 -3.81411,-1.13749 l -3.08747,0 0,-2.9495 m -155.2742,-15.72247 c 1.19881,0 2.25351,0.45683 3.16412,1.36437 0.90447,0.90447 1.35824,1.97451 1.35824,3.20091 0,1.20187 -0.44151,2.24125 -1.32145,3.12119 -0.88301,0.87995 -1.93465,1.32145 -3.16412,1.32145 -1.22333,0 -2.28417,-0.44457 -3.17638,-1.33984 -0.90141,-0.89528 -1.34291,-1.93772 -1.34291,-3.14573 0,-1.19574 0.4507,-2.25351 1.36131,-3.15798 0.90447,-0.90754 1.94691,-1.36437 3.12119,-1.36437 m -10.53786,15.72247 15.06022,-0.49362 0,32.20533 c 0,0.88301 0.21462,1.50541 0.64079,1.8764 0.61321,0.53042 1.38584,0.80022 2.32404,0.80022 l 4.24028,0 0,2.94644 -21.44978,0 0,-2.94644 3.96435,0 c 1.17428,0 2.03583,-0.28207 2.58464,-0.85848 0.54269,-0.57027 0.81863,-1.40423 0.81863,-2.49573 l 0,-23.57452 c 0,-1.49008 -0.42924,-2.61531 -1.28466,-3.37261 -0.85542,-0.76037 -2.12781,-1.13749 -3.81105,-1.13749 l -3.08746,0 0,-2.9495 m -32.54719,7.51019 c 1.66177,-2.77781 3.62402,-4.85962 5.8806,-6.24852 2.25658,-1.38584 4.81056,-2.08182 7.66195,-2.08182 2.44974,0 4.51009,0.49056 6.17187,1.46248 1.66484,0.97806 2.99549,2.52026 4.00114,4.62661 1.00258,2.10941 1.50541,4.4733 1.50541,7.09167 l 0,18.2642 c 0,1.36131 0.2974,2.33016 0.90447,2.90044 0.604,0.57641 1.61578,0.86461 3.03841,0.86461 l 2.6061,0 0,2.94337 -19.65003,0 0,-2.94337 1.86413,0 c 1.74763,0 2.96483,-0.279 3.65162,-0.84008 0.68678,-0.55495 1.03324,-1.3889 1.03324,-2.50493 l 0,-15.97083 c 0,-3.47685 -0.52429,-6.04923 -1.57593,-7.72327 -1.47168,-2.38842 -3.70373,-3.58416 -6.69309,-3.58416 -2.97096,0 -5.44523,1.20801 -7.42587,3.62096 -1.9837,2.41601 -2.97402,5.5648 -2.97402,9.44023 l 0,13.81849 c 0,1.35518 0.3066,2.31484 0.929,2.88818 0.61933,0.57028 1.63418,0.85541 3.05681,0.85541 l 2.56624,0 0,2.94337 -19.97809,0 0,-2.94337 2.57851,0 c 1.29692,0 2.28111,-0.2698 2.9587,-0.80022 0.67452,-0.53349 1.01178,-1.19881 1.01178,-2.00517 l 0,-24.24291 c 0,-1.60046 -0.42924,-2.81153 -1.28466,-3.64242 -0.85542,-0.82782 -2.08795,-1.2448 -3.69454,-1.2448 l -1.90092,0 0,-2.61837 13.26661,-0.66839 0.49056,8.34261 m 235.33255,-87.13529 11.54964,0 0,54.35723 -11.54964,0 0,-54.35723 z m -57.97176,41.74612 c 0.96579,3.68228 4.3108,5.79476 9.29613,5.79476 4.24029,0 6.62257,-1.87947 6.62257,-4.38439 0,-3.52591 -3.35114,-3.36648 -9.29919,-4.62047 -9.51995,-1.95612 -14.28453,-5.16929 -14.28453,-12.45105 0,-7.51785 6.10136,-13.15317 16.21611,-13.15317 8.25982,0 13.83689,3.67921 16.21917,10.49187 l -9.00179,1.7231 c -1.34291,-3.21318 -3.79572,-4.54076 -7.66195,-4.54076 -3.71907,0 -5.7273,1.4073 -5.7273,3.99194 0,3.51978 3.8693,3.36648 11.08055,4.93321 8.70439,1.87946 12.94774,5.00985 12.94774,12.0586 0,7.90723 -6.69616,13.62226 -18.07717,13.62226 -9.22255,0 -15.76847,-4.6174 -17.62954,-12.13525 l 9.2992,-1.33065 m -38.79909,0.6264 c 0,3.28675 2.08795,5.24593 5.80702,5.24593 4.68179,0 8.25368,-3.91529 8.25368,-9.39731 l 0,-3.59949 c -9.29919,0.15637 -14.0607,2.97709 -14.0607,7.75087 m 14.28759,5.48201 c -2.60611,4.85349 -6.99356,7.51785 -12.65034,7.51785 -8.32728,0 -13.38619,-4.85655 -13.38619,-12.29775 0,-9.47089 8.62775,-14.48381 25.80964,-14.63711 l 0,-1.72616 c 0,-4.06859 -2.1554,-6.18414 -6.39568,-6.18414 -4.68486,0 -7.36455,1.95611 -7.95936,5.63532 l -10.41215,-1.17428 c 1.78441,-7.90723 8.18317,-11.97888 18.96631,-11.97888 12.0494,0 16.73426,4.69712 16.73426,15.7378 l 0,17.85336 c 0,3.28982 0.30047,5.87447 1.11603,7.75393 l -11.08055,0 c -0.44763,-1.87946 -0.67145,-4.07166 -0.74197,-6.49994 m -47.37071,-26.70061 c -5.0957,0 -8.60628,4.38439 -8.75345,12.9968 -0.14717,8.61547 3.37874,13.07651 8.30888,13.07651 3.86623,0 7.51785,-2.97402 8.1801,-8.21996 l 10.02891,1.17121 c -1.30918,9.32066 -8.72585,15.27178 -19.00617,15.27178 -11.9237,0 -20.16206,-8.53576 -19.94744,-21.14318 0.21769,-12.84043 8.83317,-21.29954 21.57549,-21.29954 9.69777,0 16.34488,5.63838 17.49769,15.27178 l -10.39069,1.09456 c -0.64999,-5.32259 -3.95821,-8.21996 -7.49332,-8.21996 m -78.07861,-7.04752 12.61968,0 5.8622,23.64197 5.6016,-23.64197 10.43668,0 5.86527,24.03135 6.98743,-24.03135 9.41877,0 -11.5987,40.24746 -10.58079,0 -6.6563,-26.1561 -6.6563,26.1561 -9.64872,0 -11.65082,-40.24746 z m 251.75191,15.58021 c -0.0766,-5.87141 -2.82992,-9.0018 -7.58837,-9.0018 -4.39052,0 -7.29096,3.21011 -7.58529,9.0018 l 15.17366,0 z m -7.4412,25.76364 c -11.97582,0 -19.78493,-8.53576 -19.78493,-21.14317 0,-12.37134 8.33033,-21.29955 20.30615,-21.29955 11.38102,0 18.52175,8.06666 18.52175,21.61228 l 0,1.64644 -26.92567,0 c 0,7.04569 3.04761,10.88433 8.33034,10.88433 3.71907,0 6.54592,-2.1922 7.58836,-6.03084 l 10.78315,0.94127 c -2.52946,8.53269 -9.37278,13.38924 -18.81915,13.38924 M 390.30122,481.13161 c -0.0767,-5.87141 -2.82686,-9.0018 -7.58836,-9.0018 -4.39052,0 -7.29097,3.21011 -7.5853,9.0018 l 15.17366,0 z m -7.4412,25.76364 c -11.97582,0 -19.78493,-8.53576 -19.78493,-21.14317 0,-12.37134 8.33034,-21.29955 20.30616,-21.29955 11.38408,0 18.52174,8.06666 18.52174,21.61228 l 0,1.64644 -26.92567,0 c 0,7.04569 3.05068,10.88433 8.33034,10.88433 3.71907,0 6.54286,-2.1922 7.58837,-6.03084 l 10.78621,0.94127 c -2.53253,8.53269 -9.37278,13.38924 -18.82222,13.38924"
       id="path92"
       style="fill:#00457d;fill-opacity:1;fill-rule:nonzero;stroke:none" />
    <path
       d="m 156.49158,451.44562 c 0,0 0.003,32.34943 0.003,54.32043 0,79.92771 71.56365,113.22761 71.56365,113.22761 0,0 71.56365,-33.2999 71.56365,-113.22761 0,-21.971 0.003,-54.32043 0.003,-54.32043 l -143.13343,0"
       id="path96"
       style="fill:#00457d;fill-opacity:1;fill-rule:nonzero;stroke:none" />
    <path
       d="m 158.84047,453.82729 138.36579,0 0,51.96267 -138.36579,0 0,-51.96267 z"
       id="path98"
       style="fill:#ffffff;fill-opacity:1;fill-rule:nonzero;stroke:none" />
    <path
       d="m 273.82947,558.54673 c 0,-4.51929 -0.67452,-8.98034 -1.97144,-13.26968 -12.44492,8.15558 -24.80399,10.33245 -32.13175,5.86834 0.40471,-0.51509 0.64693,-1.16509 0.64693,-1.87333 0,-1.68017 -1.36131,-3.04148 -3.04148,-3.04148 -0.70518,0 -1.35517,0.24221 -1.87026,0.64693 -4.46717,-7.32469 -2.29031,-19.68989 5.86527,-32.13481 -4.28935,-1.29692 -8.75039,-1.96838 -13.26968,-1.96838 l 0,-0.003 c -4.51623,0 -8.97726,0.67452 -13.26661,1.97144 8.15558,12.44492 10.33244,24.80706 5.86527,32.13175 -0.51509,-0.40472 -1.16508,-0.64693 -1.87026,-0.64693 -1.68017,0 -3.04455,1.36437 -3.04455,3.04148 0,0.70824 0.24529,1.35517 0.64693,1.87333 -7.32469,4.46718 -19.68682,2.28725 -32.13174,-5.86834 -1.29692,4.28934 -1.97144,8.75039 -1.97144,13.26968 l 0.003,0 c 0,4.5193 0.67452,8.98034 1.96837,13.26968 12.44492,-8.15558 24.81012,-10.33551 32.13481,-5.86834 -0.40471,0.51816 -0.64999,1.16815 -0.64999,1.8764 0,1.68017 1.36437,3.04148 3.04454,3.04148 0.70518,0 1.35518,-0.24222 1.87027,-0.64693 4.46717,7.32469 2.2903,19.68682 -5.86527,32.13174 4.28934,1.29386 8.75038,1.97145 13.26661,1.97145 l 0,0 c 4.51929,0 8.98033,-0.67759 13.26967,-1.97145 -8.15558,-12.44492 -10.33244,-24.80705 -5.86834,-32.13174 0.51816,0.40471 1.16509,0.64693 1.87333,0.64693 1.68018,0 3.04148,-1.36131 3.04148,-3.04148 0,-0.70825 -0.24221,-1.35518 -0.64693,-1.87333 7.32776,-4.46717 19.6899,-2.28724 32.13481,5.86833 1.29692,-4.2924 1.97145,-8.75038 1.97145,-13.26967 l -0.003,0"
       id="path102"
       style="fill:#ffffff;fill-opacity:1;fill-rule:nonzero;stroke:none" />
    <path
       d="m 236.33651,558.54366 c 0,4.57142 -3.7068,8.27822 -8.27822,8.27822 -4.57142,0 -8.27822,-3.7068 -8.27822,-8.27822 0,-4.57142 3.7068,-8.27822 8.27822,-8.27822 4.57142,0 8.27822,3.7068 8.27822,8.27822"
       id="path106"
       style="fill:#00457d;fill-opacity:1;fill-rule:nonzero;stroke:none" />
    <path
       d="m 208.08541,471.52183 c -0.13491,0.70518 -0.99952,1.03631 -2.07876,0.83088 -2.09714,-0.40164 -2.11247,-1.90092 -1.43795,-2.18299 0.26061,0.19622 0.90754,0.6224 1.49314,0.7389 0.88608,0.17783 1.2632,0.0123 1.83041,-0.006 0.26981,-0.009 0.24834,0.33726 0.19316,0.61934 m -6.62871,8.5143 c -0.61627,1.24173 -3.19171,3.066 -4.67566,2.26884 0.66839,-0.21769 2.44361,-1.52074 3.37874,-3.12426 -0.28514,-0.1441 -0.83089,-0.49669 -0.96886,-0.68985 -0.54881,0.24221 -1.53607,1.22947 -2.33936,2.29031 -0.19622,-0.59788 0.26981,-2.19526 0.81556,-3.03842 -0.44151,-0.10117 -1.15282,-0.40164 -1.43796,-0.54575 -0.73584,1.7047 -0.78183,3.8785 -0.56414,4.54689 -1.52074,-0.72051 -1.58513,-3.87543 -0.95353,-5.11103 -1.91932,-1.34291 -1.29079,-2.9587 -0.70212,-3.28063 0.0123,0.52429 0.49056,1.64645 2.14314,2.4804 1.65564,0.83396 2.33017,0.26061 2.51719,-0.11037 0.33726,-0.67146 -0.48749,-1.29692 -1.0731,-1.93465 -0.57028,-0.6224 -0.70212,-1.61272 -0.3066,-2.09409 0.49976,-0.61013 1.35517,-0.48136 1.76908,-0.17476 -2.02969,0.36179 0.42311,2.48347 1.05164,2.80233 0.62854,0.3158 3.79265,1.02405 2.87592,-0.82169 0.49363,0.15024 1.10376,0.76344 0.9106,1.52687 -0.15023,0.60401 -1.02404,1.08537 -1.86413,0.99952 -0.86155,-0.092 -1.85493,-0.38632 -2.19526,0.28514 -0.18703,0.37099 -0.24528,1.254 1.4073,2.09102 1.65564,0.83088 2.83912,0.54881 3.27143,0.24834 0.0858,0.66226 -0.83702,2.13088 -3.05988,1.38584 m -3.83864,-13.79396 c 0.19316,-0.21156 0.46297,-0.43538 0.6132,-0.21463 0.32193,0.4691 0.41085,0.87382 1.0823,1.47782 0.44151,0.39858 1.17122,0.66839 1.48088,0.76037 0.17477,0.71131 -1.03631,1.59126 -2.60917,0.14104 -0.80942,-0.74504 -1.0547,-1.63419 -0.56721,-2.1646 m 19.61937,-1.44409 c 0.11651,-0.20543 0.34033,-1.06084 -0.4599,-1.30306 -1.16508,-0.35565 -3.58109,0.0337 -3.58109,0.0337 1.12522,-1.29692 0.64999,-4.52236 -0.72051,-5.40537 -0.17477,1.45632 -1.5698,2.28108 -2.91884,1.93155 -1.68324,-0.43537 -1.03631,-2.81152 -0.53349,-3.80798 -1.29385,-0.0828 -3.51057,0.24222 -5.36551,2.93724 -0.49056,-3.36341 -3.93368,-4.01341 -4.7615,-4.11152 0.68678,1.43489 -0.14717,3.65468 -1.3981,3.19172 -0.24835,-2.25965 -2.60611,-3.21318 -2.77474,-1.63725 -0.28207,2.61224 -2.71341,5.80088 -4.71552,5.96951 -0.18396,1.45022 1.51768,2.24432 2.48347,2.26578 -2.43134,3.55657 -5.92659,2.85139 -7.83671,2.19833 -0.0644,1.35824 1.41343,4.21269 4.24335,4.21269 -1.48395,2.24738 -4.60821,2.41601 -5.5464,1.94385 -0.41392,2.15847 3.08746,4.08085 4.03793,4.24642 -2.87285,4.58981 -1.8948,10.15767 -0.29741,12.3744 0,0 0.61014,-1.5698 1.47169,-2.37922 0.72971,-0.69599 1.27239,-0.84009 1.74455,-0.60094 0.66533,0.33726 0.4691,1.36437 0.0889,2.11861 -0.69598,1.3797 -2.23205,2.75634 -2.23205,2.75634 2.60611,0.61626 7.37681,-2.17073 7.97162,-3.35115 0.47216,1.42876 -0.47523,3.84784 -1.14056,5.00373 5.06811,0.54268 7.5945,-3.8693 8.68906,-6.55513 1.7323,1.93772 3.93369,2.15541 5.13556,1.8856 -1.64644,-3.08134 -0.91367,-6.26692 -0.17782,-7.39828 1.72003,1.67098 4.25561,2.02357 5.49428,1.61272 -1.63418,-2.26577 -1.66484,-7.87043 -1.19881,-9.82655 1.14669,0.76957 2.65516,0.97806 3.27756,0.54882 0,0 -1.04551,-1.92852 -0.7481,-4.70325 0.18396,-1.7415 1.27852,-3.22851 1.76908,-4.15138 m 22.29938,25.75569 c 0.66225,0.46909 0.34952,0.99032 0.0337,1.28772 -0.32193,0.2974 -3.7436,2.53865 -5.96339,1.85187 -1.6955,-0.52736 -1.68936,-3.5627 -4.03179,-4.54689 -1.88253,-0.7941 -3.98581,0.63466 -3.98581,0.63466 0.83089,0.0767 1.80894,0.36792 2.1462,0.57641 0,0 -0.38325,0.68372 0.31887,1.06697 0.70518,0.38632 1.2172,0.19929 1.72616,0.76344 0.64999,0.72051 0.11651,2.20139 0.11651,2.20139 -5.06198,-3.97048 -9.76217,-1.27239 -10.09636,1.29692 0.4415,-0.2974 1.72616,-0.98419 2.4712,-0.82169 0,0 0.0184,0.76957 0.64999,0.93513 0.73584,0.19316 1.62805,-0.48749 2.70115,-0.31886 1.13749,0.17783 2.10328,1.208 2.10328,1.208 -1.60045,0.22689 -5.05277,2.77474 -2.45893,6.84333 -0.0552,-0.73278 0.0276,-1.69244 0.50896,-2.01743 0,0 0.883,0.43537 1.47474,-0.0644 0.58868,-0.49976 0.77877,-1.70777 1.52994,-2.57851 0.75117,-0.87075 1.70163,-0.93207 1.70163,-0.93207 -0.41084,2.23818 1.60046,6.63177 5.29806,5.7181 -0.76956,-0.44764 -1.51154,-1.39503 -1.51154,-1.91625 0,0 1.04858,-0.37406 0.9382,-0.9382 -0.18703,-0.93513 -1.59432,-0.72971 -1.59432,-1.8764 0,-0.71744 0.61626,-1.24173 1.58206,-1.24173 2.23818,0 1.92545,2.85445 1.92545,2.85445 1.43489,-0.14103 3.64855,-1.79054 4.08392,-3.64241 0.81556,0.51509 1.16815,2.40375 1.06697,3.47685 1.84573,-0.76344 3.31742,-2.12474 3.31742,-7.27257 1.47168,2.19833 5.33791,3.41553 8.13718,1.48702 -3.59949,-0.58255 -4.32307,-4.30161 -4.51316,-4.9792 -0.1901,-0.67759 -0.57028,-3.69454 -2.22286,-5.35018 -2.34856,-2.34549 -7.64968,-2.17993 -10.72182,-1.21107 -0.8033,0.25448 -1.75989,0.75424 -1.75989,2.29337 0,1.41036 0.30047,2.9587 2.47733,3.94288 1.49621,0.67759 2.20446,1.02405 2.55092,1.26933 m -69.09797,1.65257 c -3.38794,0.24528 -9.44023,1.61885 -6.34663,7.8827 0,-1.37663 0.45377,-2.5969 1.25706,-2.99242 0.28207,0.96273 0.99645,1.13442 1.533,0.7573 0.4967,-0.34645 1.1007,-1.41036 1.69244,-1.81507 0.56721,-0.38632 1.33678,-0.61014 2.35163,-0.325 -2.75634,4.62967 0.4599,9.11217 2.96482,8.85769 -1.42875,-0.98725 -1.3705,-2.29643 -1.33064,-2.7686 0,0 0.88607,0.19929 1.2264,-0.50282 0.27287,-0.56722 -0.1717,-1.69551 0.12571,-2.75021 0.20848,-0.74504 0.87994,-1.07617 1.43182,-0.99032 0.85848,0.13184 1.16202,0.9106 1.12829,1.60659 -0.0399,0.88607 -0.50589,1.6587 -0.50589,1.6587 1.49314,1.07311 5.62305,-0.22381 8.08199,-2.35469 0,0.6408 -0.0644,1.79362 -0.69905,2.98323 2.20753,0.38018 6.03697,-2.00517 7.16219,-4.01341 0.14717,0.9658 -0.0552,3.03842 -1.17428,4.36293 1.67404,0.39245 6.22093,-0.99032 9.7499,-4.51623 0.21156,1.98064 3.17332,4.85349 6.45088,3.30822 0,0 -1.50541,-0.84315 -1.50541,-2.02663 0,-1.93158 2.12168,-3.40326 4.75844,-4.55608 3.05987,-1.33678 8.07586,-1.94385 13.15317,-4.35373 9.35438,-4.43651 11.02842,-8.72892 18.72103,-8.72892 3.35421,0 6.64404,0.7757 8.32727,3.54124 1.68018,2.7594 1.25707,6.0247 3.14573,7.82445 1.88866,1.79974 5.17848,0.47523 6.96596,-0.0736 4.4733,-1.37358 11.04376,-4.12685 15.04796,-4.40586 3.99501,-0.27594 5.05891,2.71649 5.14476,2.9587 0.30966,0.87075 -0.0583,1.4165 -0.63467,1.3797 -1.33371,-0.0828 -3.75892,-0.69598 -5.16315,0.0981 -2.01437,1.14362 -1.44715,3.9061 -1.44715,3.9061 0.51202,-0.76651 1.74762,-2.05729 3.06294,-2.00824 0.0399,0.11958 0.2698,1.60352 1.49927,1.05471 0.83089,-0.37099 1.75682,-1.50541 3.37874,-1.21721 -1.55446,1.33985 -4.46104,6.59498 -0.3158,8.83623 -0.61626,-0.9198 -0.70211,-2.62143 -0.20542,-3.41859 0,0 1.19881,0.78796 1.98064,-0.35566 0.32193,-0.47217 -0.12264,-1.78442 0.14717,-2.81459 0.23301,-0.90141 1.11602,-1.42263 1.11602,-1.42263 0.33726,1.12216 2.40989,4.6266 7.80912,4.31387 -1.24173,-0.49056 -2.01436,-1.35518 -2.21979,-1.97451 0.63773,-0.4507 0.93207,-1.51767 0.28208,-1.78135 -0.60401,-0.24528 -1.84574,-0.0307 -2.42828,-0.83702 -0.68372,-0.9382 -0.52735,-2.40988 -0.52735,-2.40988 1.85186,0.81249 6.53059,2.6521 8.41925,-1.53607 -0.57028,0.41085 -2.19526,0.90141 -3.1212,0.82169 -0.11037,-0.48136 -0.62546,-1.80588 -1.61271,-1.87946 -1.29999,-0.0981 -2.23819,0.30353 -3.46766,0.4691 -0.86461,0.11651 -1.3613,-0.34953 -1.56979,-0.80943 -0.1809,-0.39245 -0.006,-0.93819 0.19622,-1.2264 0.44151,-0.6316 1.44102,-1.03631 1.44102,-1.03631 -0.68985,-1.37357 -3.01695,-0.7849 -3.52284,-0.69292 0.10118,-0.78796 0.89528,-2.19219 2.41602,-2.82072 -0.56721,-0.98112 -2.3271,-1.85494 -5.20302,-1.37357 0.33113,-1.18961 1.33678,-2.46814 2.19526,-2.76554 -1.54833,-0.89834 -5.19074,-0.52429 -8.47137,1.87026 0.12877,-0.72357 0.0337,-2.85138 -0.95659,-3.74972 0,0 -4.27708,5.3839 -8.47445,4.66953 -4.19123,-0.71438 -3.5351,-5.7549 -3.5351,-5.7549 0,0 8.28435,1.31225 12.29162,-0.53962 4.01033,-1.85493 3.97967,-4.71858 7.33695,-6.4662 2.70115,-1.40423 5.92046,-0.24222 5.92046,-0.24222 -0.49363,-2.7686 -5.74263,-4.9424 -9.77443,-0.69905 0,0 -0.0981,-6.39568 -9.98291,-5.89286 -3.59643,0.18396 -10.31098,2.20139 -16.45219,3.32355 -5.99404,1.09457 -14.89466,1.62498 -18.68424,1.62498 -3.78959,0 -7.51172,-0.82782 -7.51172,-3.30515 0,-2.47733 2.74101,-2.82379 4.54995,-2.82379 2.87592,0 6.90465,1.6955 10.14848,2.81766 2.3179,0.80329 4.59901,0.81556 5.85301,0.81556 3.39713,0 7.67421,-1.70164 9.81735,-2.53866 2.14314,-0.84008 3.83251,-1.36744 7.93789,-1.02098 -1.28159,-1.67404 -6.01551,-3.64854 -11.49446,-0.73277 -0.49669,-0.87688 0.54575,-2.52639 2.67356,-3.20704 -0.96886,-0.61627 -4.07779,-1.47475 -7.83058,-1.37664 -5.93272,0.15023 -7.81219,2.94643 -13.57934,2.69808 -5.77023,-0.24221 -11.05602,0.71132 -11.05602,5.07424 0,3.45233 4.22802,6.11362 11.06521,6.3865 -0.17476,0.54574 -1.10069,1.21413 -1.39503,1.39196 2.35776,0.38325 5.83154,0.0951 10.31405,-2.81153 0.11957,0.48443 -0.28208,1.7231 -0.76957,2.04503 1.61272,0 4.61127,-0.81862 8.23223,-3.08134 0,0.48443 -0.0705,1.35211 -0.94127,2.22593 4.22189,-0.29741 6.52753,-2.43748 9.39731,-3.34502 3.81412,-1.20494 16.14253,-4.06859 16.14253,2.75634 0,1.63418 -0.79717,3.96741 -5.04665,3.96741 -4.24642,0 -11.52512,-1.95304 -12.93548,-2.19526 -1.41343,-0.24528 -2.98936,-0.58867 -6.70536,-0.0705 -3.46765,0.4875 -29.48885,4.2035 -33.74446,4.81057 0,1.3981 0.0521,5.77635 2.34549,7.76312 -1.80894,0.83702 -3.72213,1.41037 -7.08554,-0.11344 -0.26367,1.12829 0.003,4.38132 1.60966,6.13201 -1.34598,0.44151 -4.12991,1.14669 -6.78814,-0.57947 -1.07004,1.91319 -3.90303,7.04262 -11.57724,5.46056 0.48749,-0.36792 1.83654,-3.04455 1.83654,-3.52591 -1.52381,1.12829 -5.55561,3.32662 -13.05199,2.45587 -2.27191,-0.26061 -4.66033,-0.97806 -5.31339,-2.43747 -0.69292,-1.53607 0.28207,-3.71907 -0.19622,-4.93627 -1.00565,-2.55705 -3.73747,-2.30258 -3.73747,-2.30258 0.30047,0.25448 1.33372,0.88608 1.54221,1.79668 0,0 -1.09457,-0.0705 -1.15282,1.18348 -0.0767,1.6955 0.49976,3.55964 0.49976,3.55964 -3.15492,-3.15492 -8.3518,-6.54593 -10.02891,-0.97806 0.68372,-0.7757 1.533,-1.22334 2.49266,-1.09456 0,0 -0.6224,0.96579 0.60401,1.81201 0.57641,0.39551 2.00823,-0.0399 2.73794,0.29433 0.84315,0.38325 1.60659,1.81508 1.60659,1.81508 m 13.73142,-6.57596 c -3.52591,-2.61531 -7.97162,-2.60611 -8.74425,-2.60611 0.87381,-1.61272 1.47781,-1.9929 3.01081,-2.86672 -5.54333,0 -6.17493,-1.49927 -6.36809,-2.78086 1.49314,0.21155 3.21317,-0.20849 3.90303,-0.89834 -4.0226,-0.20849 -5.34405,-2.92191 -5.81315,-3.87543 3.12732,-0.23302 3.0936,-1.81508 2.67355,-2.78087 -0.31886,-0.73891 -1.3797,-1.35824 -2.4436,-1.02711 -0.9198,0.28207 -1.8488,1.60045 -2.8146,1.6771 -0.89527,0.0705 -1.01178,-0.83395 -1.01178,-1.38583 -1.01485,0 -1.89172,0.50282 -2.53558,1.14668 0.24221,-3.62402 4.10231,-5.06504 6.54285,-4.6358 0,0 -0.11344,-1.52994 -0.604,-2.0205 -0.74504,-0.74197 -1.69244,-0.66225 -2.38535,-1.17428 -0.46604,-0.34339 -0.4691,-1.13135 0.30353,-1.50541 -0.7665,-1.00565 -2.85752,-1.10376 -2.85752,-1.10376 4.32614,-3.21011 7.17139,0.87995 8.082,4.01647 1.15588,-1.43489 1.27545,-2.24125 1.12522,-3.03228 -0.16556,-0.87381 -0.86155,-1.49928 -0.78796,-2.0021 0.11344,-0.74198 0.9198,-0.59174 0.9198,-0.59174 -0.0981,-1.15589 -1.03325,-2.05729 -1.82121,-2.47427 0,0 3.49525,-0.30966 4.90255,3.26836 1.30918,3.32969 -0.39245,5.39924 -0.39245,5.39924 0,0 1.30305,0.15943 1.85186,-0.54268 0.58868,-0.74504 0.25142,-1.68017 0.84929,-2.18913 0.604,-0.51509 1.27546,0.4599 1.27546,0.4599 0.65306,-0.65306 0.21155,-2.25658 0.0828,-2.70115 0,0 1.82734,1.14975 1.59739,3.28063 -0.1533,1.43182 -1.5882,2.62143 -2.1922,3.40633 -0.604,0.78183 -2.36082,2.4804 0.47217,7.37988 1.73229,2.99548 3.44005,4.19123 4.36905,4.62353 -0.56721,1.12829 -1.63111,4.25562 -1.18961,7.53625"
       id="path122"
       style="fill:#dc002e;fill-opacity:1;fill-rule:nonzero;stroke:none" />
  </g>
</svg>
